<svg width="0" height="0" viewBox="0 0 16 16" fill="none" xmlns="http://www.w3.org/2000/svg">
<path d="M7.10326 1.81698C7.47008 1.07374 8.52992 1.07374 8.89674 1.81699L10.1185 4.29249C10.2641 4.58763 10.5457 4.7922 10.8714 4.83953L13.6033 5.2365C14.4235 5.35568 14.751 6.36365 14.1575 6.94219L12.1807 8.8691C11.945 9.09884 11.8375 9.42984 11.8931 9.75423L12.3598 12.4751C12.4999 13.292 11.6424 13.9149 10.9088 13.5293L8.46534 12.2446C8.17402 12.0915 7.82598 12.0915 7.53466 12.2446L5.09119 13.5293C4.35756 13.9149 3.50013 13.292 3.64024 12.4751L4.1069 9.75423C4.16254 9.42984 4.05499 9.09884 3.81931 8.8691L1.8425 6.94219C1.24898 6.36365 1.57649 5.35568 2.39671 5.2365L5.12859 4.83953C5.4543 4.7922 5.73587 4.58763 5.88153 4.29249L7.10326 1.81698Z" fill="#BFBFBF"/>
<path d="M8.00014 1.25955V12.1298C7.8403 12.1298 7.68046 12.1681 7.53479 12.2446L5.09132 13.5293C4.3577 13.9149 3.50027 13.292 3.64038 12.4751L4.10704 9.75423C4.16268 9.42984 4.05513 9.09884 3.81944 8.8691L1.84263 6.94219C1.24911 6.36365 1.57663 5.35568 2.39685 5.2365L5.12873 4.83953C5.45444 4.7922 5.736 4.58763 5.88166 4.29249L7.1034 1.81699C7.28681 1.44536 7.64347 1.25955 8.00014 1.25955Z" fill="#FF6633"/>
</svg>
